<?xml version="1.0" encoding="UTF-8"?><svg id="Warstwa_2" xmlns="http://www.w3.org/2000/svg" viewBox="0 0 137.57 136.23"><defs><style>.cls-1{fill:#fff;}</style></defs><g id="Warstwa_1-2"><path class="cls-1" d="M87.49,2.91C38.52-11.16-5.36,27.93.53,75.28c6.14,49.38,64.23,77.64,106.41,50.25,50.03-32.48,35.39-106.86-19.45-122.62Z"/><path d="M70.35,56.49c-1.12.47-1.37,2.95-1.63,3.98-1.01,4.03-1.89,8.1-2.7,12.17-.28,1.41-1.08,4.84.31,4.38,1.31-.43,1.1-2.59,4.52-16.7.15-.61,1.34-4.59-.49-3.82Z"/><path d="M62.75,51.99c.1-.7-.23-1.82-1.17-1.27-1.34.78-5.88,20.75-8.61,30.57-.58,2.07-2.52,8.75-.58,7.82,1.47-.7,9.97-34.3,10.37-37.12Z"/><path d="M58.24,50.87c0-.62-.47-1.29-1.17-.95-1.22.6-1.59,3.75-1.94,4.95-4.37,15.18-6.28,20.36-4.33,19.89,1.37-.33,1.83-3.71,2.2-4.84.82-2.5,5.24-16.42,5.24-19.05Z"/><path d="M50.48,63.57c1.01-.33,1.22-2.23,1.43-3.1,1.79-7.15,3.7-13.06,1.32-11.84-.91.47-1.06,2.15-1.28,3.03-2.2,8.79-3.19,12.46-1.47,11.9Z"/><path d="M66.93,55.35c.2-1.62-1.19-2.3-2.19.64-1.75,5.11-5.38,19.38-6.78,24.97-.32,1.26-2.55,8.25-.61,7.7,1.47-.41,9.4-31.8,9.59-33.32Z"/><path d="M38.33,22.16c-1.36.35-2.5,2.88-.48,2.35,1.36-.35,2.53-2.88.48-2.35Z"/><path d="M12.23,66.87c0,.82-.12,3.07,1.27,2.82,1.04-.18.92-2.03,1.03-2.82,3.75-25.31,15.91-33.28,17.79-37.46,3.62-8-20.1,12.32-20.1,37.46Z"/><path d="M74.2,59.01c-1.23.38-2.59,7.74-2.87,9.15-.11.58-.58,2.73.6,2.57.87-.11,1.1-1.59,1.26-2.25,2.01-7.99,2.45-9.91,1-9.47Z"/><path d="M86.03,8.01C40.89-4.96.44,31.08,5.87,74.72c5.66,45.51,59.21,71.57,98.09,46.32,46.12-29.94,32.62-98.5-17.93-113.03ZM125.89,85.76c-4.36,14.02-12.68,24.73-25.13,32.51-35.34,22.08-85.51-1.01-90.88-44.19-3.71-29.78,15.99-56.91,44.3-63.16C100.89.6,138.58,44.92,125.89,85.76Z"/><path d="M94.25,115.71c-.59.75-.25,1.62.75,1.56,4.24-.27,16.42-9.57,23.87-23.02,3.16-5.69,3.02-9.5,1.28-8.63-1.35.67.12,1.79-4.45,8.63-11.25,16.88-19.98,19.59-21.45,21.46Z"/><path d="M81.07,89.85c-1.71.2-19.56,8.98-21.09,10.54-.46.46-.67,1.32.13,1.57.68.21,21.07-10.1,21.71-10.92.55-.71.07-1.29-.75-1.19Z"/><path d="M82.51,62.71c-1.21.26-2.44,5.28-.81,4.95,1.15-.23,2.67-5.36.81-4.95Z"/><path d="M77.58,60.32c-.86.48-1.84,5.41-1.93,6.4-.14,1.65,1.27,2.33,2.05-.16.48-1.53,1.01-3.2,1.11-4.8.05-.7-.21-2-1.23-1.43Z"/><path d="M106.95,70.88c.33-1.96-.83-3.81-2.19-5.11-8.93-8.52-52.11-27.73-57.63-26.67-5.48,1.06-3.04,11.36-3.04,50.99,0,3.79-.43,11.26,5.28,10.52,4.98-.65,10-4.02,14.57-5.99,36.54-15.77,42.16-18.65,43.01-23.74ZM48.73,96.65c-.69-1.63-.48-3.7-.48-5.44,0-28.12-1.81-47.09.2-47.87,3.46-1.34,54.65,22.06,54.39,26.9-.24,4.68-53.66,26.3-54.11,26.41Z"/></g></svg>